<?xml version="1.0" encoding="UTF-8"?>
<svg version="1.1" xmlns="http://www.w3.org/2000/svg" width="64" height="64">
<path d="M0 0 C21.12 0 42.24 0 64 0 C64 21.12 64 42.24 64 64 C42.88 64 21.76 64 0 64 C0 42.88 0 21.76 0 0 Z " fill="#131212" transform="translate(0,0)"/>
<path d="M0 0 C0.38218767 1.65614657 0.71395102 3.32457024 1 5 C-0.49088599 6.49088599 -2.05918836 6.36187206 -4.125 6.6875 C-9.30115291 7.79372726 -12.53023254 10.04722514 -16 14 C-18.44391663 18.0377753 -18.57287482 22.38062844 -18 27 C-15.99703332 32.67507225 -12.38649821 36.30675089 -7 39 C-1.32137075 39.59057744 3.16922672 39.29370905 8 36 C12.76165935 31.45477971 14.04100202 27.44103119 15 21 C16.65614657 20.61781233 18.32457024 20.28604898 20 20 C21 21 21 21 21.375 24.5 C21.28973004 30.43692123 18.50163429 35.23033346 14.578125 39.57421875 C9.01526597 44.55387482 2.9847394 46.66088303 -4.375 46.4140625 C-10.37111586 45.46824661 -15.90631879 42.63680443 -19.9375 38.0625 C-20.618125 37.051875 -21.29875 36.04125 -22 35 C-22.8971875 33.700625 -22.8971875 33.700625 -23.8125 32.375 C-25.88348854 26.48903258 -26.17281468 20.33801101 -24.0859375 14.3984375 C-19.12376951 4.82625538 -11.04099449 -0.67597925 0 0 Z " fill="#A81124" transform="translate(34,9)"/>
<path d="M0 0 C0.66 0.66 1.32 1.32 2 2 C1.8125 5.5 1.8125 5.5 1 9 C-2.22143276 11.14762184 -3.2595467 11.561068 -7 11 C-9.2855347 8.87208838 -9.92303658 7.52591672 -10.375 4.4375 C-10 2 -10 2 -8.9375 0.125 C-5.82785011 -1.68060316 -3.38260527 -0.79952488 0 0 Z " fill="#A61124" transform="translate(36,27)"/>
</svg>
