<svg width="32" height="32" viewBox="0 0 32 32" fill="none" xmlns="http://www.w3.org/2000/svg">
<rect width="32" height="32" rx="12" fill="#222222"/>
<rect x="0.5" y="0.5" width="31" height="31" rx="11.5" stroke="white" stroke-opacity="0.1"/>
<path d="M16 16C15.0833 16 14.2986 15.6737 13.6458 15.0209C12.993 14.3681 12.6666 13.5834 12.6666 12.6667C12.6666 11.75 12.993 10.9653 13.6458 10.3125C14.2986 9.65976 15.0833 9.33337 16 9.33337C16.9166 9.33337 17.7014 9.65976 18.3541 10.3125C19.0069 10.9653 19.3333 11.75 19.3333 12.6667C19.3333 13.5834 19.0069 14.3681 18.3541 15.0209C17.7014 15.6737 16.9166 16 16 16V16M9.33331 22.6667V20.3334C9.33331 19.8612 9.45484 19.4271 9.6979 19.0313C9.94095 18.6355 10.2639 18.3334 10.6666 18.125C11.5278 17.6945 12.4028 17.3716 13.2916 17.1563C14.1805 16.941 15.0833 16.8334 16 16.8334C16.9166 16.8334 17.8194 16.941 18.7083 17.1563C19.5972 17.3716 20.4722 17.6945 21.3333 18.125C21.7361 18.3334 22.059 18.6355 22.3021 19.0313C22.5451 19.4271 22.6666 19.8612 22.6666 20.3334V22.6667H9.33331V22.6667M11 21H21V20.3334C21 20.1806 20.9618 20.0417 20.8854 19.9167C20.809 19.7917 20.7083 19.6945 20.5833 19.625C19.8333 19.25 19.0764 18.9688 18.3125 18.7813C17.5486 18.5938 16.7778 18.5 16 18.5C15.2222 18.5 14.4514 18.5938 13.6875 18.7813C12.9236 18.9688 12.1666 19.25 11.4166 19.625C11.2916 19.6945 11.191 19.7917 11.1146 19.9167C11.0382 20.0417 11 20.1806 11 20.3334V21V21M16 14.3334C16.4583 14.3334 16.8507 14.1702 17.1771 13.8438C17.5035 13.5174 17.6666 13.125 17.6666 12.6667C17.6666 12.2084 17.5035 11.816 17.1771 11.4896C16.8507 11.1632 16.4583 11 16 11C15.5416 11 15.1493 11.1632 14.8229 11.4896C14.4965 11.816 14.3333 12.2084 14.3333 12.6667C14.3333 13.125 14.4965 13.5174 14.8229 13.8438C15.1493 14.1702 15.5416 14.3334 16 14.3334V14.3334M16 12.6667V12.6667V12.6667V12.6667V12.6667V12.6667V12.6667V12.6667V12.6667V12.6667M16 21V21V21V21V21V21V21V21V21V21V21V21V21" fill="white"/>
</svg>
